<svg preserveAspectRatio="none" width="100%" height="100%" overflow="visible" style="display: block;" viewBox="0 0 1860.15 1958.35" fill="none" xmlns="http://www.w3.org/2000/svg">
<g id="Group 2753">
<path id="Vector" d="M757.514 966.048C790.601 935.086 805.778 906.249 805.778 860.261C805.778 765.857 738.087 713.343 647.325 713.343H314.332L339.223 747.34V1216.48L314.332 1250.47H647.325C704.241 1250.47 741.729 1249.11 785.592 1207.98C815.795 1180.66 831.732 1144.54 831.732 1103.56C831.732 1045.88 801.529 1000.65 757.514 966.048ZM416.78 791.052H647.174C694.679 791.052 727.159 809.72 727.159 860.868C727.159 912.016 694.679 935.086 647.174 935.086H416.78V791.052ZM731.56 1147.57C710.008 1169.12 684.055 1171.4 655.218 1171.4H416.931V1015.07H647.325C699.84 1015.07 753.871 1030.86 753.871 1093.54C753.871 1113.72 745.979 1133.15 731.56 1147.57Z" fill="var(--fill-0, white)"/>
<path id="Vector_2" d="M1647.66 746.43L1671.79 713.343H1647.66H1646.9H1569.19H1544.3L1569.19 747.34V930.836H1253.05V713.343H1175.18H1150.45L1175.18 747.34V1216.48L1150.45 1250.47H1175.18H1253.05V1010.06H1569.19V1216.48L1544.3 1250.47H1569.19H1646.9H1647.66H1671.79L1647.66 1217.54V746.43Z" fill="var(--fill-0, white)"/>
<path id="Vector_3" d="M1253.05 1250.47H1277.79L1253.05 1216.47V1250.47Z" fill="var(--fill-0, white)"/>
<path id="Vector_4" d="M1253.05 713.343V747.34L1277.79 713.343H1253.05Z" fill="var(--fill-0, white)"/>
<path id="Vector_5" d="M1795.19 1420.92H1743.89C1591.36 1684.55 1306.17 1862.13 979.403 1862.13C491.75 1862.13 96.2252 1466.6 96.2252 979.251C96.2252 491.902 491.599 96.2252 979.251 96.2252C1305.87 96.2252 1591.21 273.65 1743.74 537.435H1795.34L1794.74 537.738H1860.15L1837.69 507.687H1837.54C1671.04 205.2 1349.28 0 979.251 0C438.477 0 0 438.477 0 979.251C0 1520.02 438.477 1958.35 979.251 1958.35C1349.13 1958.35 1671.04 1753.3 1837.54 1450.66H1837.69L1860.15 1420.76H1794.74H1794.89L1795.19 1420.92Z" fill="var(--fill-0, white)"/>
</g>
</svg>
