<svg preserveAspectRatio="none" width="100%" height="100%" overflow="visible" style="display: block;" viewBox="0 0 216.54 60" fill="none" xmlns="http://www.w3.org/2000/svg">
<g id="Group 2825">
<path id="Vector" d="M21.472 34.66C20.5744 35.5034 19.8032 35.5335 18.6344 35.5335H12.3145V24.5204H18.6344C20.496 24.5204 21.8817 25.5988 21.8817 27.5327C21.8817 28.4786 21.5745 29.069 20.8937 29.7016C21.7913 30.4125 22.4119 31.3403 22.4119 32.5212C22.4119 33.3646 22.0866 34.0997 21.466 34.66H21.472ZM18.6344 26.1169H13.911V29.069H18.6344C19.6104 29.069 20.2731 28.569 20.2731 27.5508C20.2731 26.5326 19.6104 26.1169 18.6344 26.1169ZM18.6344 30.7077H13.911V33.9129H18.7971C19.3875 33.9129 19.9177 33.8707 20.3635 33.4249C20.6587 33.1297 20.8214 32.7321 20.8214 32.3164C20.8214 31.0331 19.7128 30.7077 18.6344 30.7077Z" fill="var(--fill-0, black)"/>
<path id="Vector_2" d="M30.5087 35.7988C27.171 35.7988 24.5864 33.1841 24.5864 29.8644C24.5864 26.5448 27.3638 24.1952 30.5207 24.1952C33.6777 24.1952 36.443 26.7497 36.443 30.0392C36.443 33.3286 33.6958 35.7988 30.5087 35.7988ZM30.5087 25.8219C28.0566 25.8219 26.1649 27.5811 26.1649 30.0572C26.1649 32.5334 28.2193 34.1781 30.5207 34.1781C32.8222 34.1781 34.8465 32.3466 34.8465 29.9548C34.8465 27.563 32.8523 25.8219 30.5087 25.8219Z" fill="var(--fill-0, black)"/>
<path id="Vector_3" d="M43.7209 35.786C41.4737 35.786 39.7928 35.1353 38.2144 33.5267L39.335 32.4483C40.7508 33.7617 42.022 34.1593 43.9439 34.1593C45.1669 34.1593 47.3538 33.7738 47.3538 32.1832C47.3538 31.635 47.0707 31.2253 46.6128 30.9301C46.0344 30.5626 45.4922 30.5325 43.8655 30.5023L42.2148 30.4722C40.5037 30.4421 38.9373 29.5444 38.9373 27.6526C38.9373 26.0441 40.2808 24.9656 41.6846 24.5078C42.3051 24.315 42.9558 24.2246 43.5884 24.2246C45.2392 24.2246 46.8357 24.7247 48.1672 25.7308L47.2695 27.014C46.0706 26.273 45.2331 25.8633 43.7993 25.8633C42.7208 25.8633 40.564 26.2007 40.564 27.6346C40.564 28.713 41.552 28.9058 42.4256 28.9058H44.0643C45.2874 28.9058 46.2935 28.9178 47.384 29.5685C48.372 30.1589 48.9323 31.1651 48.9323 32.3158C48.9323 34.9907 45.8778 35.786 43.7209 35.786Z" fill="var(--fill-0, black)"/>
<path id="Vector_4" d="M55.8431 26.129V35.5335H54.2767V26.129H50.3486V24.5204H59.723V26.129H55.8431Z" fill="var(--fill-0, black)"/>
<path id="Vector_5" d="M72.9831 35.7982C69.5852 35.7982 66.7837 33.5269 66.7837 29.9964C66.7837 26.6587 69.3683 24.2549 72.6578 24.2549C74.6941 24.2549 76.5256 25.1104 77.9716 26.5141L76.7787 27.5323C75.5978 26.5443 74.3266 25.8635 72.7481 25.8635C70.3262 25.8635 68.3622 27.5323 68.3622 30.0265C68.3622 32.7015 70.6034 34.1776 73.0855 34.1776C74.8146 34.1776 75.893 33.5992 77.0859 32.4063L78.1463 33.557C76.8148 35.1234 75.0014 35.7982 72.9771 35.7982H72.9831Z" fill="var(--fill-0, black)"/>
<path id="Vector_6" d="M89.8767 34.1599C88.9308 35.401 87.1777 35.7565 85.6956 35.7565C84.2135 35.7565 82.4483 35.2684 81.5446 33.943C80.9843 33.1176 80.924 32.3344 80.924 31.3584V24.5204H82.5206V31.3584C82.5206 32.1236 82.5627 32.7622 83.1411 33.3345C83.8339 34.0274 85.0148 34.1479 85.9486 34.1479C87.9729 34.1479 89.0815 33.5273 89.0815 31.3584V24.5204H90.6599V31.3584C90.6599 32.479 90.5876 33.2502 89.8767 34.1659V34.1599Z" fill="var(--fill-0, black)"/>
<path id="Vector_7" d="M98.7327 35.786C96.4854 35.786 94.8045 35.1353 93.2261 33.5267L94.3467 32.4483C95.7625 33.7617 97.0337 34.1593 98.9556 34.1593C100.179 34.1593 102.366 33.7738 102.366 32.1832C102.366 31.635 102.082 31.2253 101.625 30.9301C101.046 30.5626 100.504 30.5325 98.8772 30.5023L97.2265 30.4722C95.5155 30.4421 93.949 29.5444 93.949 27.6526C93.949 26.0441 95.2925 24.9656 96.6963 24.5078C97.3168 24.315 97.9675 24.2246 98.6001 24.2246C100.251 24.2246 101.847 24.7247 103.179 25.7308L102.281 27.014C101.082 26.273 100.245 25.8633 98.811 25.8633C97.7325 25.8633 95.5757 26.2007 95.5757 27.6346C95.5757 28.713 96.5638 28.9058 97.4373 28.9058H99.0761C100.299 28.9058 101.305 28.9178 102.396 29.5685C103.384 30.1589 103.944 31.1651 103.944 32.3158C103.944 34.9907 100.889 35.786 98.7327 35.786Z" fill="var(--fill-0, black)"/>
<path id="Vector_8" d="M110.854 26.129V35.5335H109.288V26.129H105.36V24.5204H114.734V26.129H110.854Z" fill="var(--fill-0, black)"/>
<path id="Vector_9" d="M122.681 35.7988C119.343 35.7988 116.759 33.1841 116.759 29.8644C116.759 26.5448 119.536 24.1952 122.693 24.1952C125.85 24.1952 128.615 26.7497 128.615 30.0392C128.615 33.3286 125.868 35.7988 122.681 35.7988ZM122.681 25.8219C120.229 25.8219 118.337 27.5811 118.337 30.0572C118.337 32.5334 120.392 34.1781 122.693 34.1781C124.994 34.1781 127.019 32.3466 127.019 29.9548C127.019 27.563 125.025 25.8219 122.681 25.8219Z" fill="var(--fill-0, black)"/>
<path id="Vector_10" d="M141.213 35.5335V27.8279L137.303 34.6359L133.496 27.8279V35.5335H131.929V24.5204H133.508L137.303 31.3885L141.231 24.5204H142.828V35.5335H141.219H141.213Z" fill="var(--fill-0, black)"/>
<path id="Vector_11" d="M160.113 35.5335V30.5993H153.63V35.5335H152.033V24.5204H153.63V28.9787H160.113V24.5204H161.721V35.5335H160.113Z" fill="var(--fill-0, black)"/>
<path id="Vector_12" d="M170.963 35.7988C167.625 35.7988 165.041 33.1841 165.041 29.8644C165.041 26.5448 167.818 24.1952 170.975 24.1952C174.132 24.1952 176.897 26.7497 176.897 30.0392C176.897 33.3286 174.15 35.7988 170.963 35.7988ZM170.963 25.8219C168.511 25.8219 166.619 27.5811 166.619 30.0572C166.619 32.5334 168.674 34.1781 170.975 34.1781C173.277 34.1781 175.301 32.3466 175.301 29.9548C175.301 27.563 173.307 25.8219 170.963 25.8219Z" fill="var(--fill-0, black)"/>
<path id="Vector_13" d="M189.49 35.5335V27.8279L185.58 34.6359L181.772 27.8279V35.5335H180.205V24.5204H181.784L185.58 31.3885L189.508 24.5204H191.104V35.5335H189.496H189.49Z" fill="var(--fill-0, black)"/>
<path id="Vector_14" d="M195.158 35.5335V24.5204H204.225V26.147H196.767V29.0269H200.514V30.6234H196.767V33.931H204.503V35.5396H195.158V35.5335Z" fill="var(--fill-0, black)"/>
<path id="Vector_15" d="M211.328 35.786C209.081 35.786 207.4 35.1353 205.822 33.5267L206.942 32.4483C208.358 33.7617 209.629 34.1593 211.551 34.1593C212.774 34.1593 214.961 33.7738 214.961 32.1832C214.961 31.635 214.678 31.2253 214.22 30.9301C213.642 30.5626 213.1 30.5325 211.473 30.5023L209.822 30.4722C208.111 30.4421 206.545 29.5444 206.545 27.6526C206.545 26.0441 207.888 24.9656 209.292 24.5078C209.913 24.315 210.563 24.2246 211.196 24.2246C212.847 24.2246 214.443 24.7247 215.775 25.7308L214.877 27.014C213.678 26.273 212.841 25.8633 211.407 25.8633C210.328 25.8633 208.171 26.2007 208.171 27.6346C208.171 28.713 209.159 28.9058 210.033 28.9058H211.672C212.895 28.9058 213.901 28.9178 214.991 29.5685C215.979 30.1589 216.54 31.1651 216.54 32.3158C216.54 34.9907 213.485 35.786 211.328 35.786Z" fill="var(--fill-0, black)"/>
<path id="Vector_16" d="M53.4271 43.5345C48.7519 51.6136 40.0161 57.0539 30.003 57.0539C15.0618 57.0539 2.94608 44.9383 2.94608 30.003C2.94608 15.0678 15.0618 2.94609 30.003 2.94609C40.0101 2.94609 48.7519 8.38037 53.4271 16.4655H56.7768C51.8305 6.69948 41.703 0 30.003 0C13.4351 0 0 13.4351 0 30.003C0 46.571 13.4351 60 30.003 60C41.703 60 51.8366 53.3005 56.7828 43.5345H53.4271Z" fill="var(--fill-0, #231F20)"/>
</g>
</svg>
