<svg preserveAspectRatio="none" width="100%" height="100%" overflow="visible" style="display: block;" viewBox="0 0 180.45 50" fill="none" xmlns="http://www.w3.org/2000/svg">
<g id="Group 2758">
<path id="Vector" d="M17.893 28.8832C17.1449 29.5861 16.5023 29.6112 15.5283 29.6112H10.2617V20.4336H15.5283C17.0797 20.4336 18.2344 21.3323 18.2344 22.9439C18.2344 23.7321 17.9784 24.2241 17.411 24.7513C18.1591 25.3437 18.6762 26.1169 18.6762 27.1009C18.6762 27.8038 18.4051 28.4163 17.888 28.8832H17.893ZM15.5283 21.764H11.5922V24.2241H15.5283C16.3416 24.2241 16.8939 23.8074 16.8939 22.9589C16.8939 22.1105 16.3416 21.764 15.5283 21.764ZM15.5283 25.5897H11.5922V28.2607H15.6639C16.1559 28.2607 16.5977 28.2255 16.9692 27.854C17.2152 27.608 17.3508 27.2767 17.3508 26.9302C17.3508 25.8608 16.427 25.5897 15.5283 25.5897Z" fill="var(--fill-0, white)"/>
<path id="Vector_2" d="M25.4235 29.8318C22.6421 29.8318 20.4883 27.6528 20.4883 24.8865C20.4883 22.1201 22.8028 20.1621 25.4336 20.1621C28.0643 20.1621 30.3688 22.2908 30.3688 25.0321C30.3688 27.7733 28.0794 29.8318 25.4235 29.8318ZM25.4235 21.5177C23.3801 21.5177 21.8037 22.9837 21.8037 25.0471C21.8037 27.1106 23.5157 28.4812 25.4336 28.4812C27.3514 28.4812 29.0383 26.955 29.0383 24.9618C29.0383 22.9686 27.3765 21.5177 25.4235 21.5177Z" fill="var(--fill-0, white)"/>
<path id="Vector_3" d="M36.4345 29.8222C34.5618 29.8222 33.1611 29.2799 31.8457 27.9395L32.7795 27.0408C33.9594 28.1353 35.0187 28.4666 36.6203 28.4666C37.6395 28.4666 39.4619 28.1453 39.4619 26.8199C39.4619 26.363 39.226 26.0216 38.8444 25.7756C38.3624 25.4693 37.9106 25.4442 36.555 25.4191L35.1794 25.394C33.7535 25.3689 32.4482 24.6208 32.4482 23.0444C32.4482 21.7039 33.5678 20.8052 34.7376 20.4237C35.2547 20.263 35.7969 20.1877 36.3241 20.1877C37.6997 20.1877 39.0302 20.6044 40.1397 21.4428L39.3916 22.5122C38.3925 21.8947 37.6947 21.5533 36.4998 21.5533C35.6011 21.5533 33.8037 21.8344 33.8037 23.0293C33.8037 23.928 34.6271 24.0887 35.3551 24.0887H36.7207C37.7399 24.0887 38.5783 24.0987 39.487 24.6409C40.3104 25.133 40.7773 25.9714 40.7773 26.9303C40.7773 29.1595 38.2319 29.8222 36.4345 29.8222Z" fill="var(--fill-0, white)"/>
<path id="Vector_4" d="M46.5358 21.7741V29.6112H45.2305V21.7741H41.957V20.4336H49.7691V21.7741H46.5358Z" fill="var(--fill-0, white)"/>
<path id="Vector_5" d="M60.8195 29.8323C57.9879 29.8323 55.6533 27.9395 55.6533 24.9974C55.6533 22.216 57.8072 20.2128 60.5484 20.2128C62.2453 20.2128 63.7716 20.9258 64.9765 22.0955L63.9825 22.944C62.9984 22.1207 61.9391 21.5533 60.6237 21.5533C58.6054 21.5533 56.9687 22.944 56.9687 25.0225C56.9687 27.2517 58.8364 28.4817 60.9048 28.4817C62.3458 28.4817 63.2444 27.9998 64.2385 27.0057L65.1221 27.9646C64.0126 29.27 62.5014 29.8323 60.8145 29.8323H60.8195Z" fill="var(--fill-0, white)"/>
<path id="Vector_6" d="M74.8971 28.4665C74.1089 29.5008 72.6479 29.797 71.4128 29.797C70.1778 29.797 68.7067 29.3903 67.9536 28.2858C67.4867 27.598 67.4365 26.9453 67.4365 26.132V20.4336H68.767V26.132C68.767 26.7696 68.8021 27.3018 69.2841 27.7787C69.8615 28.3561 70.8455 28.4565 71.6237 28.4565C73.3106 28.4565 74.2344 27.9394 74.2344 26.132V20.4336H75.5498V26.132C75.5498 27.0658 75.4895 27.7084 74.8971 28.4716V28.4665Z" fill="var(--fill-0, white)"/>
<path id="Vector_7" d="M82.2773 29.8222C80.4047 29.8222 79.0039 29.2799 77.6885 27.9394L78.6224 27.0408C79.8022 28.1353 80.8615 28.4666 82.4631 28.4666C83.4823 28.4666 85.3047 28.1453 85.3047 26.8199C85.3047 26.363 85.0688 26.0216 84.6872 25.7756C84.2052 25.4693 83.7534 25.4442 82.3978 25.4191L81.0222 25.394C79.5963 25.3689 78.291 24.6208 78.291 23.0444C78.291 21.7039 79.4106 20.8052 80.5804 20.4236C81.0975 20.263 81.6397 20.1877 82.1669 20.1877C83.5425 20.1877 84.873 20.6044 85.9825 21.4428L85.2345 22.5122C84.2354 21.8947 83.5375 21.5533 82.3426 21.5533C81.4439 21.5533 79.6465 21.8344 79.6465 23.0293C79.6465 23.928 80.4699 24.0887 81.1979 24.0887H82.5635C83.5827 24.0887 84.4211 24.0987 85.3299 24.6409C86.1532 25.1329 86.6201 25.9714 86.6201 26.9303C86.6201 29.1595 84.0747 29.8222 82.2773 29.8222Z" fill="var(--fill-0, white)"/>
<path id="Vector_8" d="M92.3786 21.7741V29.6112H91.0732V21.7741H87.7998V20.4336H95.6118V21.7741H92.3786Z" fill="var(--fill-0, white)"/>
<path id="Vector_9" d="M102.234 29.8327C99.4527 29.8327 97.2988 27.6538 97.2988 24.8875C97.2988 22.1211 99.6133 20.1631 102.244 20.1631C104.875 20.1631 107.179 22.2918 107.179 25.0331C107.179 27.7743 104.89 29.8327 102.234 29.8327ZM102.234 21.5186C100.191 21.5186 98.6142 22.9847 98.6142 25.0481C98.6142 27.1116 100.326 28.4822 102.244 28.4822C104.162 28.4822 105.849 26.9559 105.849 24.9628C105.849 22.9696 104.187 21.5186 102.234 21.5186Z" fill="var(--fill-0, white)"/>
<path id="Vector_10" d="M117.677 29.6112V23.1899L114.419 28.8632L111.246 23.1899V29.6112H109.94V20.4336H111.256L114.419 26.1571L117.692 20.4336H119.023V29.6112H117.682H117.677Z" fill="var(--fill-0, white)"/>
<path id="Vector_11" d="M133.427 29.6112V25.4994H128.025V29.6112H126.694V20.4336H128.025V24.1488H133.427V20.4336H134.767V29.6112H133.427Z" fill="var(--fill-0, white)"/>
<path id="Vector_12" d="M142.469 29.8327C139.688 29.8327 137.534 27.6538 137.534 24.8875C137.534 22.1211 139.849 20.1631 142.479 20.1631C145.11 20.1631 147.415 22.2918 147.415 25.0331C147.415 27.7743 145.125 29.8327 142.469 29.8327ZM142.469 21.5186C140.426 21.5186 138.85 22.9847 138.85 25.0481C138.85 27.1116 140.562 28.4822 142.479 28.4822C144.397 28.4822 146.084 26.9559 146.084 24.9628C146.084 22.9696 144.422 21.5186 142.469 21.5186Z" fill="var(--fill-0, white)"/>
<path id="Vector_13" d="M157.908 29.6112V23.1899L154.649 28.8632L151.476 23.1899V29.6112H150.171V20.4336H151.486L154.649 26.1571L157.923 20.4336H159.253V29.6112H157.913H157.908Z" fill="var(--fill-0, white)"/>
<path id="Vector_14" d="M162.632 29.6112V20.4336H170.188V21.7891H163.972V24.189H167.095V25.5194H163.972V28.2757H170.419V29.6162H162.632V29.6112Z" fill="var(--fill-0, white)"/>
<path id="Vector_15" d="M176.107 29.8222C174.234 29.8222 172.834 29.2799 171.518 27.9394L172.452 27.0408C173.632 28.1353 174.691 28.4666 176.293 28.4666C177.312 28.4666 179.135 28.1453 179.135 26.8199C179.135 26.363 178.899 26.0216 178.517 25.7756C178.035 25.4693 177.583 25.4442 176.228 25.4191L174.852 25.394C173.426 25.3689 172.121 24.6208 172.121 23.0444C172.121 21.7039 173.24 20.8052 174.41 20.4236C174.927 20.263 175.47 20.1877 175.997 20.1877C177.372 20.1877 178.703 20.6044 179.812 21.4428L179.064 22.5122C178.065 21.8947 177.367 21.5533 176.172 21.5533C175.274 21.5533 173.476 21.8344 173.476 23.0293C173.476 23.928 174.3 24.0887 175.028 24.0887H176.393C177.413 24.0887 178.251 24.0987 179.16 24.6409C179.983 25.1329 180.45 25.9714 180.45 26.9303C180.45 29.1595 177.905 29.8222 176.107 29.8222Z" fill="var(--fill-0, white)"/>
<path id="Vector_16" d="M44.5225 36.2787C40.6266 43.0114 33.3467 47.5449 25.0025 47.5449C12.5515 47.5449 2.45507 37.4485 2.45507 25.0025C2.45507 12.5565 12.5515 2.45507 25.0025 2.45507C33.3417 2.45507 40.6266 6.98364 44.5225 13.7213H47.314C43.1921 5.5829 34.7525 0 25.0025 0C11.1959 0 0 11.1959 0 25.0025C0 38.8091 11.1959 50 25.0025 50C34.7525 50 43.1971 44.4171 47.319 36.2787H44.5225Z" fill="var(--fill-0, white)"/>
</g>
</svg>
