<svg preserveAspectRatio="none" width="100%" height="100%" overflow="visible" style="display: block;" viewBox="0 0 76 76" fill="none" xmlns="http://www.w3.org/2000/svg">
<g id="Frame 1410132484">
<path id="Union" d="M34.171 32.3613C34.171 42.0497 32.1556 49.6963 28.1231 55.2998C24.0907 60.9033 17.2037 65.8522 7.46299 70.1465L9.48906e-05 56.1641C6.07499 53.3361 10.2384 50.5077 12.4903 47.6797C14.7945 44.9042 16.0781 41.6051 16.3399 37.7822H9.48906e-05V6.0459H34.171V32.3613ZM75.9991 32.3604C75.9991 42.0487 73.9837 49.6953 69.9513 55.2988C65.9188 60.9024 59.0318 65.8512 49.2911 70.1455L41.8282 56.1631C47.9031 53.3351 52.0666 50.5067 54.3185 47.6787C56.6226 44.9032 57.9062 41.6041 58.1681 37.7812H41.8282V6.04492H75.9991V32.3604Z" fill="var(--fill-0, #A9DFF2)"/>
</g>
</svg>
